<?xml version="1.0" encoding="utf-8" standalone="no"?>
<!DOCTYPE svg PUBLIC "-//W3C//DTD SVG 1.1//EN" "http://www.w3.org/Graphics/SVG/1.1/DTD/svg11.dtd">
<svg version="1.1" class="svg-plot" xmlns="http://www.w3.org/2000/svg" width="367.54pt" height="191pt" viewBox="-81.9 -16 367.54 191" preserveAspectRatio="xMidYMid"><rect x="-71.9" y="-6" width="347.54" height="171" class="svg-plot-bg"/><rect x="0" y="0" width="240" height="130" class="svg-plot-axis"/><line x1="0" x2="240" y1="130" y2="130" class="svg-plot-minor"/><line x1="0" x2="240" y1="0" y2="0" class="svg-plot-minor"/><clipPath id="clip0"><rect x="-0.75" y="-0.75" width="241.5" height="131.5"/></clipPath><g clip-path="url(#clip0)"><path class="svg-plot-line svg-plot-s1 svg-plot-d1" d="M 0 129.66 80 125.78 160 100.96 240 0"/><path class="svg-plot-line svg-plot-s0 svg-plot-d0" d="M 0 130 80 129.65 160 126.69 240 68.9"/></g><g><line x1="0" x2="0" y1="130" y2="134" class="svg-plot-tick"/><line x1="80" x2="80" y1="130" y2="134" class="svg-plot-tick"/><line x1="160" x2="160" y1="130" y2="134" class="svg-plot-tick"/><line x1="240" x2="240" y1="130" y2="134" class="svg-plot-tick"/><line x1="0" x2="-4" y1="130" y2="130" class="svg-plot-tick"/><line x1="0" x2="-4" y1="0" y2="0" class="svg-plot-tick"/><text class="svg-plot-label svg-plot-t" x="0" y="0" transform="rotate(-90) translate(-64 -66.9)">Time (s)</text><text class="svg-plot-value" style="text-anchor:end" x="-9" y="-1">1.30003</text><text class="svg-plot-value" style="text-anchor:end" x="-9" y="129">0.0002153</text><text class="svg-plot-label svg-plot-t" x="120" y="159">Point Set Size</text><text class="svg-plot-value" x="240" y="143">100000</text><text class="svg-plot-value" x="160" y="143">10000</text><text class="svg-plot-value" x="80" y="143">1000</text><text class="svg-plot-value" x="0" y="143">100</text><text class="svg-plot-label svg-plot-t1" style="text-anchor:start" x="243" y="-1.2">range</text><text class="svg-plot-label svg-plot-t0" style="text-anchor:start" x="243" y="67.6966">kd</text></g><defs><g id="svg-plot-marker0" class="svg-plot-marker"><circle cx="0" cy="0" r="1" stroke="none"/></g><g id="svg-plot-marker1" class="svg-plot-marker"><path d="M0 0.9 -0.9 0 0 -0.9 0.9 0Z" fill="#FFFA" stroke-linejoin="miter" stroke-width="0.5"/></g><g id="svg-plot-marker2" class="svg-plot-marker"><path fill="none" d="M0 -1.2 0 1.2 M -1.2 0 1.2 0" stroke-width="0.6"/></g><g id="svg-plot-marker3" class="svg-plot-marker"><circle cx="0" cy="0" fill="#FFFA" r="0.82" stroke-width="0.55"/></g><g id="svg-plot-marker4" class="svg-plot-marker"><path stroke="none" d="M0 -1.25 1.25 0.9 -1.25 0.9Z"/></g><mask id="svg-plot-hatch1"><rect x="-390" y="-390" width="780" height="780" fill="url(#svg-plot-hatch1-pattern)" style="transform:rotate(-50deg)"/></mask><pattern patternUnits="userSpaceOnUse" id="svg-plot-hatch1-pattern" class="svg-plot-hatch" x="0" y="0" width="10" height="3"><line x1="-1" x2="11" y1="1.5" y2="1.5" stroke="#FFF" fill="none"/><rect x="-1" y="-1" width="12" height="12" fill="#FFF2" stroke="none"/></pattern><mask id="svg-plot-hatch2"><rect x="-390" y="-390" width="780" height="780" fill="url(#svg-plot-hatch2-pattern)" style="transform:rotate(30deg)"/></mask><pattern patternUnits="userSpaceOnUse" id="svg-plot-hatch2-pattern" class="svg-plot-hatch" x="0" y="0" width="10" height="2.4"><line x1="-1" x2="11" y1="1.2" y2="1.2" stroke="#FFF" fill="none"/><rect x="-1" y="-1" width="12" height="12" fill="#FFF2" stroke="none"/></pattern><mask id="svg-plot-hatch3"><rect x="-390" y="-390" width="780" height="780" fill="url(#svg-plot-hatch3-pattern)" style="transform:rotate(8deg)"/><rect x="-390" y="-390" width="780" height="780" fill="url(#svg-plot-hatch3-pattern)" style="transform:rotate(93deg)"/></mask><pattern patternUnits="userSpaceOnUse" id="svg-plot-hatch3-pattern" class="svg-plot-hatch" x="0" y="0" width="10" height="3"><line x1="-1" x2="11" y1="1.5" y2="1.5" stroke="#FFF" fill="none"/><rect x="-1" y="-1" width="12" height="12" fill="#FFF2" stroke="none"/></pattern></defs><style>.svg-plot{stroke-linecap:butt;stroke-linejoin:round;}.svg-plot-bg{fill:none;stroke:none;}.svg-plot-axis{stroke:none;fill:#FFFFFFD9;}.svg-plot-legend{stroke:none;fill:#FFFFFFE4;}.svg-plot-line{stroke:blue;fill:none;stroke-width:1.5px;stroke-linejoin:round;}.svg-plot-fill{stroke:none;opacity:0.28;}.svg-plot-major{stroke:#000;stroke-width:1px;stroke-linecap:square;fill:none;}.svg-plot-minor{stroke:#0000004D;stroke-width:0.5px;stroke-dasharray:0.5 1.5;stroke-linecap:round;fill:none;}.svg-plot-tick{stroke:#000;fill:none;stroke-width:1px;stroke-linecap:butt;}.svg-plot-value,.svg-plot-label{font-family:Arial,sans-serif;fill:#000;stroke:#FFFFFF48;stroke-width:2.5px;paint-order:stroke fill;text-anchor:middle;dominant-baseline:central;alignment-baseline:baseline;}.svg-plot-label{font-size:12px;}.svg-plot-value{font-size:10px;}.svg-plot-hatch{stroke:#FFF;stroke-width:1px;}.svg-plot-marker{transform:scale(3.25);}.svg-plot-s{stroke:#000;}.svg-plot-f,.svg-plot-t{fill:#000;}.svg-plot-s0{stroke:#0073E6}.svg-plot-f0,.svg-plot-t0{fill:#0073E6}.svg-plot-s1{stroke:#CC0000}.svg-plot-f1,.svg-plot-t1{fill:#CC0000}.svg-plot-s2{stroke:#00B300}.svg-plot-f2,.svg-plot-t2{fill:#00B300}.svg-plot-s3{stroke:#806600}.svg-plot-f3,.svg-plot-t3{fill:#806600}.svg-plot-s4{stroke:#E69900}.svg-plot-f4,.svg-plot-t4{fill:#E69900}.svg-plot-s5{stroke:#CC00CC}.svg-plot-f5,.svg-plot-t5{fill:#CC00CC}.svg-plot-d0{stroke-width:1.35px}.svg-plot-d1{stroke-dasharray:1.8 1.8}.svg-plot-d2{stroke-dasharray:4.2 2.4}.svg-plot-d3{stroke-dasharray:7.5 6}.svg-plot-d4{stroke-dasharray:6 1.5 1.5 1.5 1.5 1.5}.svg-plot-d5{stroke-dasharray:15 4.5}.svg-plot-d6{stroke-dasharray:6 3 1.5 3}.svg-plot-h0{opacity:0.14}.svg-plot-h1{mask:url(#svg-plot-hatch1)}.svg-plot-h2{mask:url(#svg-plot-hatch2)}.svg-plot-h3{mask:url(#svg-plot-hatch3)}#svg-plot-hatch2-pattern{stroke-width:0.9px}#svg-plot-hatch3-pattern{stroke-width:0.7px}</style></svg>